<svg viewBox="0 0 73 20" fill="none" xmlns="http://www.w3.org/2000/svg">
<path d="M28 3.29832C28 3.13356 28.1336 3 28.2983 3H30.3749C30.5397 3 30.6733 3.13356 30.6733 3.29832V11.7525C30.6733 12.3993 30.8053 12.9472 31.0693 13.396C31.3333 13.8317 31.6898 14.1617 32.1386 14.3861C32.6007 14.6106 33.1287 14.7228 33.7228 14.7228C34.33 14.7228 34.8647 14.6106 35.3267 14.3861C35.7888 14.1617 36.1518 13.8317 36.4158 13.396C36.6799 12.9472 36.8119 12.3993 36.8119 11.7525V3.29832C36.8119 3.13356 36.9454 3 37.1102 3H39.1868C39.3516 3 39.4851 3.13356 39.4851 3.29832V11.6139C39.4851 12.5248 39.3267 13.3168 39.0099 13.9901C38.6931 14.6634 38.2574 15.2244 37.703 15.6733C37.1617 16.1221 36.5413 16.4587 35.8416 16.6832C35.1551 16.8944 34.4356 17 33.6832 17C32.6799 17 31.7426 16.802 30.8713 16.4059C30.0132 16.0099 29.3201 15.4158 28.7921 14.6238C28.264 13.8317 28 12.8284 28 11.6139V3.29832Z" fill="#F4F4F4"></path>
<path d="M41.0366 7.25554C41.0366 7.09078 41.1702 6.95722 41.3349 6.95722H43.0834C43.2281 6.95722 43.352 7.06114 43.3771 7.20369L43.4047 7.35997C43.4481 7.60558 43.7645 7.69938 43.9622 7.54739C44.1738 7.38474 44.4066 7.24742 44.6604 7.13544C45.1224 6.92421 45.6175 6.8186 46.1455 6.8186C46.9244 6.8186 47.5845 6.98362 48.1257 7.31365C48.6802 7.64369 49.1026 8.12553 49.3931 8.7592C49.6967 9.37966 49.8485 10.1519 49.8485 11.076V16.5599C49.8485 16.7246 49.7149 16.8582 49.5502 16.8582H47.5924C47.4276 16.8582 47.294 16.7246 47.294 16.5599V11.4127C47.294 10.647 47.1422 10.0727 46.8386 9.68989C46.535 9.30705 46.0795 9.11563 45.4723 9.11563C44.8518 9.11563 44.3766 9.31365 44.0465 9.70969C43.7297 10.0925 43.5713 10.6668 43.5713 11.4325V16.5599C43.5713 16.7246 43.4377 16.8582 43.273 16.8582H41.3349C41.1702 16.8582 41.0366 16.7246 41.0366 16.5599V7.25554Z" fill="#F4F4F4"></path>
<path d="M56.5935 6.96564C56.7582 6.96564 56.8918 6.83207 56.8918 6.66732V4.49168C56.8918 4.32692 57.0253 4.19336 57.1901 4.19336H59.1677C59.3325 4.19336 59.466 4.32692 59.466 4.49168V6.66732C59.466 6.83207 59.5996 6.96564 59.7644 6.96564H61.3459C61.5107 6.96564 61.6443 7.0992 61.6443 7.26396V8.90494C61.6443 9.0697 61.5107 9.20326 61.3459 9.20326H59.7644C59.5996 9.20326 59.466 9.33682 59.466 9.50158V13.2231C59.466 13.7379 59.5716 14.101 59.7829 14.3122C60.0073 14.5234 60.2845 14.6356 60.6146 14.6488C60.8427 14.6576 61.0709 14.6518 61.2991 14.6314C61.4812 14.6151 61.6443 14.7543 61.6443 14.9371V16.5272C61.6443 16.6675 61.5466 16.7896 61.4084 16.8144C60.883 16.9084 60.3675 16.9324 59.8621 16.8864C59.2944 16.8336 58.7862 16.6818 58.3373 16.431C57.8885 16.167 57.532 15.7709 57.268 15.2429C57.0172 14.7148 56.8918 14.0415 56.8918 13.2231V9.50158C56.8918 9.33682 56.7582 9.20326 56.5935 9.20326H55.7842C55.6194 9.20326 55.4858 9.0697 55.4858 8.90494V7.26396C55.4858 7.0992 55.6194 6.96564 55.7842 6.96564H56.5935Z" fill="#F4F4F4"></path>
<path d="M68.1854 16.9968C67.1953 16.9968 66.324 16.779 65.5715 16.3434C64.8191 15.9077 64.2316 15.3005 63.8092 14.5216C63.3999 13.7427 63.1953 12.845 63.1953 11.8285C63.1953 10.8516 63.3999 9.98692 63.8092 9.23445C64.2184 8.48197 64.7861 7.89451 65.5121 7.47207C66.2514 7.03643 67.0897 6.8186 68.027 6.8186C68.9775 6.8186 69.8158 7.02322 70.5418 7.43247C71.2679 7.84171 71.829 8.41596 72.225 9.15524C72.6343 9.88131 72.8389 10.7328 72.8389 11.7097C72.8389 11.8549 72.8257 12.0199 72.7993 12.2047C72.792 12.2991 72.7828 12.3975 72.7715 12.4999C72.7552 12.6486 72.6282 12.7592 72.4787 12.7592H66.2659C66.0865 12.7592 65.946 12.9172 65.9888 13.0914C66.0587 13.3752 66.1704 13.6274 66.324 13.8483C66.5484 14.1387 66.8191 14.3698 67.1359 14.5414C67.4659 14.6998 67.8356 14.779 68.2448 14.779C68.7333 14.779 69.1689 14.68 69.5517 14.482C69.8606 14.3173 70.1012 14.1164 70.2736 13.8794C70.3577 13.7637 70.5023 13.6996 70.6394 13.7405L72.3288 14.2444C72.5036 14.2965 72.5917 14.4923 72.5027 14.6514C72.1129 15.3487 71.5715 15.8995 70.8785 16.3038C70.0996 16.7658 69.2019 16.9968 68.1854 16.9968ZM69.7574 10.9176C69.9264 10.9176 70.0641 10.7767 70.0343 10.6104C69.9898 10.3626 69.9016 10.1349 69.7696 9.92751C69.5848 9.62388 69.3405 9.39286 69.0369 9.23445C68.7333 9.06283 68.3966 8.97702 68.027 8.97702C67.697 8.97702 67.3867 9.06283 67.0963 9.23445C66.8059 9.40606 66.555 9.63709 66.3438 9.92751C66.2079 10.1179 66.103 10.3331 66.0293 10.5732C65.975 10.7501 66.1169 10.9176 66.3019 10.9176H69.7574Z" fill="#F4F4F4"></path>
<path d="M51.3994 6.93872H53.9341V16.8397H51.3994V6.93872Z" fill="#F4F4F4"></path>
<rect x="51.3994" y="3" width="2.53453" height="2.53453" rx="0.29832" fill="#F4F4F4"></rect>
<rect width="20" height="20" rx="2.35405" fill="#0F62FE"></rect>
<path d="M12.0136 4.58967C12.0136 4.264 12.2774 4 12.6028 4H14.6419C14.9673 4 15.2311 4.264 15.2311 4.58967V11.5985C15.2311 12.5019 15.015 13.2838 14.583 13.944C14.1547 14.6004 13.5568 15.1081 12.789 15.4672C12.0213 15.8224 11.1302 16 10.1155 16C9.0932 16 8.19818 15.8224 7.43046 15.4672C6.66274 15.1081 6.06477 14.6004 5.63655 13.944C5.21218 13.2838 5 12.5019 5 11.5985V4.58967C5 4.264 5.26379 4 5.58919 4H7.62827C7.95367 4 8.21746 4.264 8.21746 4.58967V11.3205C8.21746 11.6873 8.29848 12.0154 8.46051 12.305C8.62254 12.5907 8.8463 12.8147 9.13178 12.9768C9.42112 13.139 9.74904 13.2201 10.1155 13.2201C10.4859 13.2201 10.8138 13.139 11.0993 12.9768C11.3848 12.8147 11.6085 12.5907 11.7706 12.305C11.9326 12.0154 12.0136 11.6873 12.0136 11.3205V4.58967Z" fill="white"></path>
</svg>