<svg width="103" height="32" viewBox="0 0 103 32" fill="none" xmlns="http://www.w3.org/2000/svg">
<path d="M0 0.681875C0 0.305285 0.305286 0 0.681875 0H5.42845C5.80504 0 6.11033 0.305286 6.11033 0.681875V20.0057C6.11033 21.4842 6.41207 22.7364 7.01556 23.7624C7.61905 24.7581 8.43376 25.5125 9.45969 26.0255C10.5158 26.5384 11.7228 26.7949 13.0806 26.7949C14.4686 26.7949 15.6907 26.5384 16.7468 26.0255C17.8029 25.5125 18.6327 24.7581 19.2362 23.7624C19.8397 22.7364 20.1414 21.4842 20.1414 20.0057V0.681874C20.1414 0.305285 20.4467 0 20.8233 0H25.5699C25.9465 0 26.2518 0.305286 26.2518 0.681875V19.6888C26.2518 21.7709 25.8897 23.5813 25.1655 25.1202C24.4413 26.6591 23.4455 27.9415 22.1782 28.9675C20.9411 29.9934 19.5229 30.7628 17.9236 31.2758C16.3545 31.7586 14.71 32 12.9901 32C10.6968 32 8.55445 31.5474 6.56294 30.6421C4.6016 29.7369 3.01744 28.3791 1.81047 26.5686C0.603489 24.7581 0 22.4649 0 19.6888V0.681875Z" fill="white"></path>
<path d="M29.7979 9.72673C29.7979 9.35015 30.1031 9.04486 30.4797 9.04486H34.4761C34.807 9.04486 35.0901 9.2824 35.1476 9.60824L35.2107 9.96542C35.3097 10.5268 36.0329 10.7412 36.4849 10.3938C36.9686 10.022 37.5005 9.70818 38.0807 9.45221C39.1368 8.96942 40.2684 8.72803 41.4754 8.72803C43.2557 8.72803 44.7644 9.10521 46.0015 9.85957C47.2689 10.6139 48.2344 11.7153 48.8983 13.1637C49.5923 14.5819 49.9393 16.3471 49.9393 18.4593V30.9938C49.9393 31.3704 49.634 31.6757 49.2574 31.6757H44.7824C44.4058 31.6757 44.1005 31.3704 44.1005 30.9938V19.2287C44.1005 17.4786 43.7535 16.166 43.0595 15.291C42.3655 14.4159 41.3245 13.9784 39.9365 13.9784C38.5183 13.9784 37.432 14.431 36.6776 15.3362C35.9534 16.2113 35.5913 17.5239 35.5913 19.274V30.9938C35.5913 31.3704 35.2861 31.6757 34.9095 31.6757H30.4797C30.1031 31.6757 29.7979 31.3704 29.7979 30.9938V9.72673Z" fill="white"></path>
<path d="M65.3559 9.06417C65.7325 9.06417 66.0378 8.75889 66.0378 8.3823V3.40941C66.0378 3.03282 66.3431 2.72754 66.7197 2.72754H71.2399C71.6165 2.72754 71.9218 3.03282 71.9218 3.40941V8.3823C71.9218 8.75889 72.2271 9.06417 72.6037 9.06417H76.2187C76.5953 9.06417 76.9006 9.36946 76.9006 9.74605V13.4969C76.9006 13.8735 76.5953 14.1787 76.2187 14.1787H72.6037C72.2271 14.1787 71.9218 14.484 71.9218 14.8606V23.3669C71.9218 24.5437 72.1632 25.3735 72.646 25.8563C73.159 26.339 73.7926 26.5955 74.547 26.6257C75.0686 26.6458 75.5902 26.6325 76.1117 26.5859C76.528 26.5486 76.9006 26.8668 76.9006 27.2847V30.9191C76.9006 31.2399 76.6773 31.5191 76.3615 31.5755C75.1605 31.7904 73.9824 31.8453 72.827 31.7403C71.5295 31.6196 70.3678 31.2726 69.3419 30.6993C68.316 30.0958 67.5013 29.1905 66.8978 27.9836C66.3245 26.7766 66.0378 25.2377 66.0378 23.3669V14.8606C66.0378 14.484 65.7325 14.1787 65.3559 14.1787H63.5061C63.1295 14.1787 62.8242 13.8735 62.8242 13.4969V9.74605C62.8242 9.36946 63.1295 9.06417 63.5061 9.06417H65.3559Z" fill="white"></path>
<path d="M91.8522 31.9925C89.5891 31.9925 87.5976 31.4946 85.8777 30.4989C84.1577 29.5031 82.815 28.1151 81.8494 26.3348C80.914 24.5545 80.4463 22.5027 80.4463 20.1792C80.4463 17.9463 80.914 15.9699 81.8494 14.25C82.7848 12.53 84.0823 11.1872 85.7419 10.2217C87.4317 9.22591 89.3478 8.72803 91.4901 8.72803C93.6627 8.72803 95.5788 9.19573 97.2384 10.1311C98.898 11.0665 100.18 12.3791 101.086 14.0689C102.021 15.7285 102.489 17.6747 102.489 19.9077C102.489 20.2396 102.459 20.6168 102.398 21.0392C102.382 21.255 102.36 21.4799 102.335 21.7139C102.297 22.0536 102.007 22.3065 101.665 22.3065H87.4648C87.0547 22.3065 86.7335 22.6677 86.8315 23.0659C86.9911 23.7144 87.2465 24.2911 87.5976 24.7959C88.1106 25.4598 88.7292 25.9878 89.4534 26.3801C90.2077 26.7422 91.0526 26.9232 91.988 26.9232C93.1045 26.9232 94.1002 26.6969 94.9753 26.2443C95.6812 25.8678 96.2312 25.4087 96.6251 24.8671C96.8175 24.6026 97.1481 24.4561 97.4615 24.5496L101.323 25.7013C101.722 25.8204 101.924 26.2679 101.72 26.6316C100.829 28.2255 99.5918 29.4844 98.0078 30.4084C96.2275 31.4645 94.1757 31.9925 91.8522 31.9925ZM95.4454 18.0972C95.8316 18.0972 96.1463 17.775 96.0782 17.395C95.9765 16.8285 95.7749 16.3082 95.4732 15.8341C95.0507 15.1401 94.4925 14.612 93.7985 14.25C93.1045 13.8577 92.335 13.6615 91.4901 13.6615C90.7358 13.6615 90.0267 13.8577 89.3628 14.25C88.699 14.6422 88.1257 15.1703 87.6429 15.8341C87.3321 16.2692 87.0925 16.7611 86.924 17.31C86.7999 17.7143 87.1243 18.0972 87.5472 18.0972H95.4454Z" fill="white"></path>
<path d="M53.4854 9.00293H59.2788V31.6338H53.4854V9.00293Z" fill="white"></path>
<rect x="53.4854" width="5.79321" height="5.79321" rx="0.681875" fill="white"></rect>
</svg>