<svg width="500" height="585" viewBox="0 0 500 585" fill="none" xmlns="http://www.w3.org/2000/svg">
<g clip-path="url(#clip0_2667_242)">
<path d="M495 5.09998V215.8C495 250.6 486.4 299.8 463.4 352.8C463.4 352.8 463.4 352.9 463.4 353C445.2 394.8 418.1 439.1 378.9 480.7C345.4 516.4 303 550.2 250.1 578.8C135.9 516.8 70.9 430.7 37 353C37 353 37 352.9 37 352.8C13.7 299.8 5 250.6 5 215.8V5.09998H494.9H495Z" fill="black"></path>
<path d="M463.6 352.3C463.6 352.5 463.4 352.7 463.4 352.8C463.4 352.8 463.4 352.9 463.4 353C445.2 394.8 418.1 439.1 378.9 480.7C345.4 516.4 303 550.2 250.1 578.8C135.9 516.8 70.9001 430.7 37 353C37 353 37 352.9 37 352.8C37 352.6 36.8 352.4 36.8 352.3H463.8H463.6Z" fill="#006342"></path>
<path d="M10.1 10.1V215.8C10.1 299.8 60.7 469.2 250.1 573.1C439.3 469.6 489.9 300 489.9 215.8V10.1H10.1ZM250.1 584.6L247.7 583.3C52.2 477.2 0 302.4 0 215.8V0H500V215.8C500 302.6 447.9 477.6 252.5 583.3L250.1 584.6Z" fill="#F2B226"></path>
<path d="M400 352.3L350 402.3H300V452.3L250 502.3L200 452.3V402.3H150L100 352.3L150 302.3H200V252.3L250 202.3L300 252.3V302.3H350L400 352.3Z" fill="#F2B226"></path>
<path d="M140.2 117.1L139 129.2C136.9 127.8 128 125.2 121.1 125.2C114.2 125.2 112 126.5 112 130.5C112 134.5 115.5 135 118.8 136L127.2 138.4C138 141.5 143.3 145.9 143.3 155.2C143.3 164.5 134.2 173.3 120 173.3C105.8 173.3 101.7 170.9 97.9 168.7L99 156.2C100.5 157.8 110.9 160.8 119 160.8C127.1 160.8 128.7 159.5 128.7 155.6C128.7 151.7 126.8 151.5 122.6 150.4L113.5 148.1C105.7 145.6 97.5 141.7 97.5 131.2C97.5 120.7 106.6 113 120.5 113C134.4 113 135.5 114.8 140.2 117.1Z" fill="white"></path>
<path d="M162.9 161.7L158.9 172.4H143.7L166.8 113.8H183.6L206.8 172.4H191.6L187.6 161.7H162.8H162.9ZM183.6 150.7L175.3 128.1L166.9 150.7H183.6Z" fill="white"></path>
<path d="M227.6 172.4H213.4V113.8H227.6V172.4Z" fill="white"></path>
<path d="M254.6 172.4H240.4V113.8H252.5L282.5 149.5V113.8H296.7V172.4H284.4L254.6 137V172.4Z" fill="white"></path>
<path d="M321.1 126.1H303.8V113.9H352.6V126.1H335.3V172.5H321.2V126.1H321.1Z" fill="white"></path>
<path d="M399.3 117.1L398.1 129.2C396 127.8 387.1 125.2 380.2 125.2C373.3 125.2 371.1 126.5 371.1 130.5C371.1 134.5 374.6 135 377.9 136L386.3 138.4C397.1 141.5 402.4 145.9 402.4 155.2C402.4 164.5 393.3 173.3 379.1 173.3C364.9 173.3 360.8 170.9 357 168.7L358.1 156.2C359.6 157.8 370 160.8 378.1 160.8C386.2 160.8 387.8 159.5 387.8 155.6C387.8 151.7 385.9 151.5 381.7 150.4L372.6 148.1C364.8 145.6 356.6 141.7 356.6 131.2C356.6 120.7 365.7 113 379.6 113C393.5 113 394.6 114.8 399.3 117.1Z" fill="white"></path>
<path d="M58.1 83.8H50V50.2H56.9L74.1 70.7V50.2H82.2V83.8H75.1L58 63.5V83.8H58.1Z" fill="white"></path>
<path d="M105.2 49.7C115.8 49.7 123 56.8 123 67C123 77.2 115.7 84.3 105.2 84.3C94.7 84.3 87.3 77.2 87.3 67C87.3 56.8 94.6 49.8 105.2 49.8V49.7ZM105.3 76.8C111 76.8 114.8 72.8 114.8 67C114.8 61.2 111 57.3 105.3 57.3C99.6 57.3 95.6 61.3 95.6 67C95.6 72.7 99.5 76.8 105.3 76.8Z" fill="white"></path>
<path d="M136.2 83.8H128.1V50.2H144.1C151.4 50.2 156.9 55.1 156.9 62.2C156.9 69.3 154.5 70.5 150.9 72.6L159.5 83.8H149.7L142.5 74.3H136.2V83.8ZM136.2 57V67.4H143.5C146.6 67.4 148.5 65.1 148.5 62.2C148.5 59.3 146.5 57 143.5 57H136.2Z" fill="white"></path>
<path d="M170.5 57.2H160.6V50.2H188.6V57.2H178.7V83.8H170.6V57.2H170.5Z" fill="white"></path>
<path d="M201.7 83.8H193.6V50.2H201.7V63.2H216.2V50.2H224.3V83.8H216.2V70.1H201.7V83.8Z" fill="white"></path>
<path d="M240.2 77.6L237.9 83.8H229.2L242.5 50.2H252.2L265.5 83.8H256.8L254.5 77.6H240.3H240.2ZM252.1 71.3L247.3 58.3L242.5 71.3H252.1Z" fill="white"></path>
<path d="M276.1 50.2L288 64.3L299.8 50.2H306.7V83.8H298.6V62.8L288.6 74.3H287.6L277.5 62.8V83.8H269.4V50.2H276.3H276.1Z" fill="white"></path>
<path d="M329.9 74.3H322.2V83.8H314.1V50.2H330C337.3 50.2 342.8 55 342.8 62.3C342.8 69.6 337.3 74.3 330 74.3H329.9ZM322.2 57V67.4H329.4C332.5 67.4 334.4 65.1 334.4 62.2C334.4 59.3 332.4 57 329.4 57H322.2Z" fill="white"></path>
<path d="M355.9 57.2H346V50.2H374V57.2H364.1V83.8H356V57.2H355.9Z" fill="white"></path>
<path d="M393.9 49.7C404.5 49.7 411.7 56.8 411.7 67C411.7 77.2 404.4 84.3 393.9 84.3C383.4 84.3 376 77.2 376 67C376 56.8 383.3 49.8 393.9 49.8V49.7ZM394 76.8C399.7 76.8 403.5 72.8 403.5 67C403.5 61.2 399.7 57.3 394 57.3C388.3 57.3 384.3 61.3 384.3 67C384.3 72.7 388.2 76.8 394 76.8Z" fill="white"></path>
<path d="M425.9 83.8H417.8V50.2H424.7L441.9 70.7V50.2H450V83.8H442.9L425.8 63.5V83.8H425.9Z" fill="white"></path>
<path d="M220.7 346.4H216.6L220.7 342.2H225.5V362.2H220.7V346.4Z" fill="black"></path>
<path d="M231.9 351.7C230.3 350.9 229 349.6 229 347.5C229 343.5 233 341.9 236.8 341.9C240.6 341.9 244.6 343.5 244.6 347.5C244.6 351.5 243.3 350.9 241.7 351.7C243.6 352.6 245.1 354.2 245.1 356.6C245.1 361 240.8 362.5 236.9 362.5C233 362.5 228.7 360.9 228.7 356.6C228.7 352.3 230.1 352.6 232.1 351.7H231.9ZM233.5 356.2C233.5 357.8 235 358.7 236.8 358.7C238.6 358.7 240.1 357.8 240.1 356.2C240.1 354.6 238.6 353.7 236.8 353.7C235 353.7 233.5 354.6 233.5 356.2ZM236.8 350.2C238.5 350.2 239.6 349.4 239.6 347.9C239.6 346.4 238.5 345.8 236.8 345.8C235.1 345.8 234 346.7 234 347.9C234 349.1 235.1 350.2 236.8 350.2Z" fill="black"></path>
<path d="M250.6 351.7C249 350.9 247.7 349.6 247.7 347.5C247.7 343.5 251.7 341.9 255.5 341.9C259.3 341.9 263.3 343.5 263.3 347.5C263.3 351.5 262 350.9 260.4 351.7C262.3 352.6 263.8 354.2 263.8 356.6C263.8 361 259.5 362.5 255.6 362.5C251.7 362.5 247.4 360.9 247.4 356.6C247.4 352.3 248.8 352.6 250.8 351.7H250.6ZM252.2 356.2C252.2 357.8 253.7 358.7 255.5 358.7C257.3 358.7 258.8 357.8 258.8 356.2C258.8 354.6 257.3 353.7 255.5 353.7C253.7 353.7 252.2 354.6 252.2 356.2ZM255.4 350.2C257.1 350.2 258.2 349.4 258.2 347.9C258.2 346.4 257.1 345.8 255.4 345.8C253.7 345.8 252.6 346.7 252.6 347.9C252.6 349.1 253.7 350.2 255.4 350.2Z" fill="black"></path>
<path d="M274.7 342C281.1 342 283.4 347.1 283.4 352.4C283.4 357.7 280.8 362.5 274.7 362.5C268.6 362.5 265.9 358 265.9 352.4C265.9 346.8 268.4 342 274.7 342ZM274.7 358.4C277.6 358.4 278.7 355.3 278.7 352.3C278.7 349.3 277.6 346.2 274.7 346.2C271.8 346.2 270.7 349.3 270.7 352.3C270.7 355.3 271.8 358.4 274.7 358.4Z" fill="black"></path>
</g>
<defs>
<clipPath id="clip0_2667_242">
<rect width="500" height="584.6" fill="white"></rect>
</clipPath>
</defs>
</svg>