<svg xmlns="http://www.w3.org/2000/svg" id="Crest" version="1.1" viewBox="0 0 500 584.6">
  <defs>
    
  </defs>
  <path class="cls-3" d="M495,5.1v210.7c0,34.8-8.6,84-31.6,137,0,0,0,.1,0,.2-18.2,41.8-45.3,86.1-84.5,127.7-33.5,35.7-75.9,69.5-128.8,98.1-114.2-62-179.2-148.1-213.1-225.8,0,0,0-.1,0-.2C13.7,299.8,5,250.6,5,215.8V5.1h489.9Z"></path>
  <path class="cls-1" d="M463.6,352.3c0,.2-.2.4-.2.5,0,0,0,.1,0,.2-18.2,41.8-45.3,86.1-84.5,127.7-33.5,35.7-75.9,69.5-128.8,98.1-114.2-62-179.2-148.1-213.1-225.8,0,0,0-.1,0-.2,0-.2-.2-.4-.2-.5h427Z"></path>
  <path class="cls-2" d="M10.1,10.1v205.7c0,84,50.6,253.4,240,357.3,189.2-103.5,239.8-273.1,239.8-357.3V10.1H10.1ZM250.1,584.6l-2.4-1.3C52.2,477.2,0,302.4,0,215.8V0h500v215.8c0,86.8-52.1,261.8-247.5,367.5l-2.4,1.3Z"></path>
  <polygon class="cls-2" points="400 352.3 350 402.3 300 402.3 300 452.3 250 502.3 200 452.3 200 402.3 150 402.3 100 352.3 150 302.3 200 302.3 200 252.3 250 202.3 300 252.3 300 302.3 350 302.3 400 352.3"></polygon>
  <g>
    <path class="cls-4" d="M140.2,117.1l-1.2,12.1c-2.1-1.4-11-4-17.9-4s-9.1,1.3-9.1,5.3,3.5,4.5,6.8,5.5l8.4,2.4c10.8,3.1,16.1,7.5,16.1,16.8s-9.1,18.1-23.3,18.1-18.3-2.4-22.1-4.6l1.1-12.5c1.5,1.6,11.9,4.6,20,4.6s9.7-1.3,9.7-5.2-1.9-4.1-6.1-5.2l-9.1-2.3c-7.8-2.5-16-6.4-16-16.9s9.1-18.2,23-18.2,15,1.8,19.7,4.1Z"></path>
    <path class="cls-4" d="M162.9,161.7l-4,10.7h-15.2l23.1-58.6h16.8l23.2,58.6h-15.2l-4-10.7h-24.8ZM183.6,150.7l-8.3-22.6-8.4,22.6h16.7Z"></path>
    <path class="cls-4" d="M227.6,172.4h-14.2v-58.6h14.2v58.6Z"></path>
    <path class="cls-4" d="M254.6,172.4h-14.2v-58.6h12.1l30,35.7v-35.7h14.2v58.6h-12.3l-29.8-35.4v35.4Z"></path>
    <path class="cls-4" d="M321.1,126.1h-17.3v-12.2h48.8v12.2h-17.3v46.4h-14.1v-46.4Z"></path>
    <path class="cls-4" d="M399.3,117.1l-1.2,12.1c-2.1-1.4-11-4-17.9-4s-9.1,1.3-9.1,5.3,3.5,4.5,6.8,5.5l8.4,2.4c10.8,3.1,16.1,7.5,16.1,16.8s-9.1,18.1-23.3,18.1-18.3-2.4-22.1-4.6l1.1-12.5c1.5,1.6,11.9,4.6,20,4.6s9.7-1.3,9.7-5.2-1.9-4.1-6.1-5.2l-9.1-2.3c-7.8-2.5-16-6.4-16-16.9s9.1-18.2,23-18.2,15,1.8,19.7,4.1Z"></path>
  </g>
  <g>
    <path class="cls-4" d="M58.1,83.8h-8.1v-33.6h6.9l17.2,20.5v-20.5h8.1v33.6h-7.1l-17.1-20.3v20.3Z"></path>
    <path class="cls-4" d="M105.2,49.7c10.6,0,17.8,7.1,17.8,17.3s-7.3,17.3-17.8,17.3-17.9-7.1-17.9-17.3,7.3-17.2,17.9-17.2ZM105.3,76.8c5.7,0,9.5-4,9.5-9.8s-3.8-9.7-9.5-9.7-9.7,4-9.7,9.7,3.9,9.8,9.7,9.8Z"></path>
    <path class="cls-4" d="M136.2,83.8h-8.1v-33.6h16c7.3,0,12.8,4.9,12.8,12s-2.4,8.3-6,10.4l8.6,11.2h-9.8l-7.2-9.5h-6.3v9.5ZM136.2,57v10.4h7.3c3.1,0,5-2.3,5-5.2s-2-5.2-5-5.2h-7.3Z"></path>
    <path class="cls-4" d="M170.5,57.2h-9.9v-7h28v7h-9.9v26.6h-8.1v-26.6Z"></path>
    <path class="cls-4" d="M201.7,83.8h-8.1v-33.6h8.1v13h14.5v-13h8.1v33.6h-8.1v-13.7h-14.5v13.7Z"></path>
    <path class="cls-4" d="M240.2,77.6l-2.3,6.2h-8.7l13.3-33.6h9.7l13.3,33.6h-8.7l-2.3-6.2h-14.2ZM252.1,71.3l-4.8-13-4.8,13h9.6Z"></path>
    <path class="cls-4" d="M276.1,50.2l11.9,14.1,11.8-14.1h6.9v33.6h-8.1v-21l-10,11.5h-1l-10.1-11.5v21h-8.1v-33.6h6.9Z"></path>
    <path class="cls-4" d="M329.9,74.3h-7.7v9.5h-8.1v-33.6h15.9c7.3,0,12.8,4.8,12.8,12.1s-5.5,12-12.8,12ZM322.2,57v10.4h7.2c3.1,0,5-2.3,5-5.2s-2-5.2-5-5.2h-7.2Z"></path>
    <path class="cls-4" d="M355.9,57.2h-9.9v-7h28v7h-9.9v26.6h-8.1v-26.6Z"></path>
    <path class="cls-4" d="M393.9,49.7c10.6,0,17.8,7.1,17.8,17.3s-7.3,17.3-17.8,17.3-17.9-7.1-17.9-17.3,7.3-17.2,17.9-17.2ZM394,76.8c5.7,0,9.5-4,9.5-9.8s-3.8-9.7-9.5-9.7-9.7,4-9.7,9.7,3.9,9.8,9.7,9.8Z"></path>
    <path class="cls-4" d="M425.9,83.8h-8.1v-33.6h6.9l17.2,20.5v-20.5h8.1v33.6h-7.1l-17.1-20.3v20.3Z"></path>
  </g>
  <g>
    <path class="cls-3" d="M220.7,346.4h-4.1l4.1-4.2h4.8v20h-4.8v-15.8Z"></path>
    <path class="cls-3" d="M231.9,351.7c-1.6-.8-2.9-2.1-2.9-4.2,0-4,4-5.6,7.8-5.6s7.8,1.6,7.8,5.6-1.3,3.4-2.9,4.2c1.9.9,3.4,2.5,3.4,4.9,0,4.4-4.3,5.9-8.2,5.9s-8.2-1.6-8.2-5.9,1.4-4,3.4-4.9ZM233.5,356.2c0,1.6,1.5,2.5,3.3,2.5s3.3-.9,3.3-2.5-1.5-2.5-3.3-2.5-3.3.9-3.3,2.5ZM236.8,350.2c1.7,0,2.8-.8,2.8-2.3s-1.1-2.1-2.8-2.1-2.8.9-2.8,2.1,1.1,2.3,2.8,2.3Z"></path>
    <path class="cls-3" d="M250.6,351.7c-1.6-.8-2.9-2.1-2.9-4.2,0-4,4-5.6,7.8-5.6s7.8,1.6,7.8,5.6-1.3,3.4-2.9,4.2c1.9.9,3.4,2.5,3.4,4.9,0,4.4-4.3,5.9-8.2,5.9s-8.2-1.6-8.2-5.9,1.4-4,3.4-4.9ZM252.2,356.2c0,1.6,1.5,2.5,3.3,2.5s3.3-.9,3.3-2.5-1.5-2.5-3.3-2.5-3.3.9-3.3,2.5ZM255.4,350.2c1.7,0,2.8-.8,2.8-2.3s-1.1-2.1-2.8-2.1-2.8.9-2.8,2.1,1.1,2.3,2.8,2.3Z"></path>
    <path class="cls-3" d="M274.7,342c6.4,0,8.7,5.1,8.7,10.4s-2.6,10.1-8.7,10.1-8.8-4.5-8.8-10.1,2.5-10.4,8.8-10.4ZM274.7,358.4c2.9,0,4-3.1,4-6.1s-1.1-6.1-4-6.1-4,3.1-4,6.1,1.1,6.1,4,6.1Z"></path>
  </g>
</svg>